  0
SECTION
  2
HEADER
  9
$ACADVER
  1
AC1014
  9
$HANDSEED
  5
FFFF
  9
$MEASUREMENT
 70
     1
  0
ENDSEC
  0
SECTION
  2
TABLES
  0
TABLE
  2
VPORT
  5
8
330
0
100
AcDbSymbolTable
 70
     4
  0
VPORT
  5
2E
330
8
100
AcDbSymbolTableRecord
100
AcDbViewportTableRecord
  2
*ACTIVE
 70
     0
 10
0.0
 20
0.0
 11
1.0
 21
1.0
 12
210.0
 22
148.5
 13
0.0
 23
0.0
 14
10.0
 24
10.0
 15
10.0
 25
10.0
 16
0.0
 26
0.0
 36
1.0
 17
0.0
 27
0.0
 37
0.0
 40
341.0
 41
1.24
 42
50.0
 43
0.0
 44
0.0
 50
0.0
 51
0.0
 71
     0
 72
   100
 73
     1
 74
     3
 75
     0
 76
     0
 77
     0
 78
     0
  0
ENDTAB
  0
TABLE
  2
LTYPE
  5
5
330
0
100
AcDbSymbolTable
 70
     1
  0
LTYPE
  5
14
330
5
100
AcDbSymbolTableRecord
100
AcDbLinetypeTableRecord
  2
BYBLOCK
 70
     0
  3

 72
    65
 73
     0
 40
0.0
  0
LTYPE
  5
15
330
5
100
AcDbSymbolTableRecord
100
AcDbLinetypeTableRecord
  2
BYLAYER
 70
     0
  3

 72
    65
 73
     0
 40
0.0
  0
LTYPE
  5
16
330
5
100
AcDbSymbolTableRecord
100
AcDbLinetypeTableRecord
  2
CONTINUOUS
 70
     0
  3
Solid line
 72
    65
 73
     0
 40
0.0
  0
ENDTAB
  0
TABLE
  2
LAYER
  5
2
100
AcDbSymbolTable
 70
2
  0
LAYER
  5
50
100
AcDbSymbolTableRecord
100
AcDbLayerTableRecord
  2
0
 70
0
  6
CONTINUOUS
  0
LAYER
  5
51
100
AcDbSymbolTableRecord
100
AcDbLayerTableRecord
  2
Layer_1
 70
0
  6
CONTINUOUS
  0
ENDTAB
  0
TABLE
  2
STYLE
  5
3
330
0
100
AcDbSymbolTable
 70
     1
  0
STYLE
  5
11
330
3
100
AcDbSymbolTableRecord
100
AcDbTextStyleTableRecord
  2
STANDARD
 70
     0
 40
0.0
 41
1.0
 50
0.0
 71
     0
 42
2.5
  3
txt
  4

  0
ENDTAB
  0
TABLE
  2
VIEW
  5
6
330
0
100
AcDbSymbolTable
 70
     0
  0
ENDTAB
  0
TABLE
  2
UCS
  5
7
330
0
100
AcDbSymbolTable
 70
     0
  0
ENDTAB
  0
TABLE
  2
APPID
  5
9
330
0
100
AcDbSymbolTable
 70
     2
  0
APPID
  5
12
330
9
100
AcDbSymbolTableRecord
100
AcDbRegAppTableRecord
  2
ACAD
 70
     0
  0
ENDTAB
  0
TABLE
  2
DIMSTYLE
  5
A
330
0
100
AcDbSymbolTable
 70
     1
  0
DIMSTYLE
105
27
330
A
100
AcDbSymbolTableRecord
100
AcDbDimStyleTableRecord
  2
ISO-25
 70
     0
  3

  4

  5

  6

  7

 40
1.0
 41
2.5
 42
0.625
 43
3.75
 44
1.25
 45
0.0
 46
0.0
 47
0.0
 48
0.0
140
2.5
141
2.5
142
0.0
143
0.03937007874016
144
1.0
145
0.0
146
1.0
147
0.625
 71
     0
 72
     0
 73
     0
 74
     0
 75
     0
 76
     0
 77
     1
 78
     8
170
     0
171
     3
172
     1
173
     0
174
     0
175
     0
176
     0
177
     0
178
     0
270
     2
271
     2
272
     2
273
     2
274
     3
340
11
275
     0
280
     0
281
     0
282
     0
283
     0
284
     8
285
     0
286
     0
287
     3
288
     0
  0
ENDTAB
  0
TABLE
  2
BLOCK_RECORD
  5
1
330
0
100
AcDbSymbolTable
 70
     1
  0
BLOCK_RECORD
  5
1F
330
1
100
AcDbSymbolTableRecord
100
AcDbBlockTableRecord
  2
*MODEL_SPACE
  0
BLOCK_RECORD
  5
1B
330
1
100
AcDbSymbolTableRecord
100
AcDbBlockTableRecord
  2
*PAPER_SPACE
  0
ENDTAB
  0
ENDSEC
  0
SECTION
  2
BLOCKS
  0
BLOCK
  5
20
330
1F
100
AcDbEntity
  8
0
100
AcDbBlockBegin
  2
*MODEL_SPACE
 70
     0
 10
0.0
 20
0.0
 30
0.0
  3
*MODEL_SPACE
  1

  0
ENDBLK
  5
21
330
1F
100
AcDbEntity
  8
0
100
AcDbBlockEnd
  0
BLOCK
  5
1C
330
1B
100
AcDbEntity
 67
     1
  8
0
100
AcDbBlockBegin
  2
*PAPER_SPACE
  1

  0
ENDBLK
  5
1D
330
1B
100
AcDbEntity
 67
     1
  8
0
100
AcDbBlockEnd
  0
ENDSEC
  0
SECTION
  2
ENTITIES
  0
LWPOLYLINE
  5
100
100
AcDbEntity
  8
Layer_1
 62
7
100
AcDbPolyline
 90
124
 70
0
 10
4.516457
 20
15.650158
 30
0.0
 10
4.516457
 20
13.176395
 30
0.0
 10
5.577677
 20
13.176395
 30
0.0
 10
5.577677
 20
8.284465
 30
0.0
 10
5.577677
 20
7.752448
 30
0.0
 10
4.705961
 20
7.752448
 30
0.0
 10
4.705961
 20
6.994433
 30
0.0
 10
4.326953
 20
6.994433
 30
0.0
 10
4.326953
 20
9.855938
 30
0.0
 10
5.084968
 20
9.855938
 30
0.0
 10
5.084968
 20
12.338435
 30
0.0
 10
4.137449
 20
12.338435
 30
0.0
 10
4.137449
 20
11.201413
 30
0.0
 10
3.379434
 20
11.201413
 30
0.0
 10
3.379434
 20
12.338435
 30
0.0
 10
2.431919
 20
12.338435
 30
0.0
 10
2.431919
 20
11.201413
 30
0.0
 10
1.673903
 20
11.201413
 30
0.0
 10
1.673903
 20
12.338435
 30
0.0
 10
1.029593
 20
12.338435
 30
0.0
 10
1.029593
 20
9.855938
 30
0.0
 10
1.484400
 20
9.855938
 30
0.0
 10
1.491974
 20
6.501762
 30
0.0
 10
1.476413
 20
3.120866
 30
0.0
 10
1.352959
 20
3.071292
 30
0.0
 10
1.229214
 20
3.066416
 30
0.0
 10
0.980488
 20
3.129262
 30
0.0
 10
0.729515
 20
3.186407
 30
0.0
 10
0.602961
 20
3.174405
 30
0.0
 10
0.475574
 20
3.114854
 30
0.0
 10
0.335995
 20
2.915356
 30
0.0
 10
0.218096
 20
2.565037
 30
0.0
 10
0.147940
 20
2.116315
 30
0.0
 10
0.151588
 20
1.621605
 30
0.0
 10
0.219930
 20
1.007321
 30
0.0
 10
0.356136
 20
0.676096
 30
0.0
 10
0.572051
 20
0.512649
 30
0.0
 10
0.879521
 20
0.401700
 30
0.0
 10
1.137292
 20
0.339093
 30
0.0
 10
1.372305
 20
0.333839
 30
0.0
 10
1.789851
 20
0.444254
 30
0.0
 10
2.163745
 20
0.630669
 30
0.0
 10
2.525571
 20
0.790805
 30
0.0
 10
2.706761
 20
0.817670
 30
0.0
 10
2.884750
 20
0.794770
 30
0.0
 10
3.235571
 20
0.656193
 30
0.0
 10
3.586921
 20
0.488108
 30
0.0
 10
3.947689
 20
0.403551
 30
0.0
 10
4.338760
 20
0.433518
 30
0.0
 10
4.703277
 20
0.522779
 30
0.0
 10
5.599606
 20
0.804479
 30
0.0
 10
5.797592
 20
0.827346
 30
0.0
 10
6.026075
 20
0.804805
 30
0.0
 10
6.535628
 20
0.672807
 30
0.0
 10
7.050449
 20
0.507105
 30
0.0
 10
7.492722
 20
0.406317
 30
0.0
 10
7.693983
 20
0.414624
 30
0.0
 10
7.900525
 20
0.465589
 30
0.0
 10
8.319674
 20
0.630291
 30
0.0
 10
8.730623
 20
0.770030
 30
0.0
 10
8.926914
 20
0.789789
 30
0.0
 10
9.113823
 20
0.754410
 30
0.0
 10
9.782488
 20
0.511641
 30
0.0
 10
10.052686
 20
0.452847
 30
0.0
 10
10.343612
 20
0.439805
 30
0.0
 10
10.589125
 20
0.474628
 30
0.0
 10
10.841318
 20
0.552261
 30
0.0
 10
11.342532
 20
0.773486
 30
0.0
 10
11.800821
 20
0.978541
 30
0.0
 10
11.999358
 20
1.035962
 30
0.0
 10
12.169751
 20
1.042488
 30
0.0
 10
12.312925
 20
0.989701
 30
0.0
 10
12.441128
 20
0.892472
 30
0.0
 10
12.697344
 20
0.641939
 30
0.0
 10
12.847716
 20
0.527262
 30
0.0
 10
13.027836
 20
0.445395
 30
0.0
 10
13.248884
 20
0.415652
 30
0.0
 10
13.522041
 20
0.457345
 30
0.0
 10
14.324018
 20
0.678856
 30
0.0
 10
14.539531
 20
0.825375
 30
0.0
 10
14.739709
 20
1.103448
 30
0.0
 10
14.930673
 20
1.426741
 30
0.0
 10
15.023245
 20
1.733814
 30
0.0
 10
14.955716
 20
2.142799
 30
0.0
 10
14.666379
 20
2.771827
 30
0.0
 10
14.063430
 20
3.080730
 30
0.0
 10
13.418765
 20
3.219799
 30
0.0
 10
13.422913
 20
4.151919
 30
0.0
 10
13.422913
 20
9.855978
 30
0.0
 10
14.180928
 20
9.855978
 30
0.0
 10
14.180928
 20
12.338475
 30
0.0
 10
13.233410
 20
12.338475
 30
0.0
 10
13.233410
 20
11.201452
 30
0.0
 10
12.475395
 20
11.201452
 30
0.0
 10
12.475395
 20
12.338475
 30
0.0
 10
11.527879
 20
12.338475
 30
0.0
 10
11.527879
 20
11.201452
 30
0.0
 10
10.769864
 20
11.201452
 30
0.0
 10
10.769864
 20
12.338475
 30
0.0
 10
9.822348
 20
12.338475
 30
0.0
 10
9.822348
 20
9.855978
 30
0.0
 10
10.580360
 20
9.855978
 30
0.0
 10
10.580360
 20
6.994473
 30
0.0
 10
10.201352
 20
6.994473
 30
0.0
 10
10.201352
 20
7.752488
 30
0.0
 10
9.329636
 20
7.752488
 30
0.0
 10
9.329636
 20
8.284505
 30
0.0
 10
9.329636
 20
13.176435
 30
0.0
 10
10.390856
 20
13.176435
 30
0.0
 10
10.390856
 20
15.650197
 30
0.0
 10
9.443337
 20
15.650197
 30
0.0
 10
9.443337
 20
14.521910
 30
0.0
 10
8.685325
 20
14.521910
 30
0.0
 10
8.685325
 20
15.650197
 30
0.0
 10
7.672147
 20
15.650197
 30
0.0
 10
7.672147
 20
14.521910
 30
0.0
 10
7.125029
 20
14.521910
 30
0.0
 10
7.125029
 20
15.650197
 30
0.0
 10
6.221779
 20
15.650197
 30
0.0
 10
6.221779
 20
14.521910
 30
0.0
 10
5.463764
 20
14.521910
 30
0.0
 10
5.463764
 20
15.650197
 30
0.0
 10
4.516245
 20
15.650197
 30
0.0
 10
4.516465
 20
15.650197
 30
0.0
  0
LWPOLYLINE
  5
101
100
AcDbEntity
  8
Layer_1
 62
7
100
AcDbPolyline
 90
11
 70
0
 10
8.555557
 20
12.422419
 30
0.0
 10
8.750981
 20
12.351355
 30
0.0
 10
8.815384
 20
12.262523
 30
0.0
 10
8.839825
 20
12.138162
 30
0.0
 10
8.839825
 20
11.380147
 30
0.0
 10
8.271314
 20
11.380147
 30
0.0
 10
8.271314
 20
12.138162
 30
0.0
 10
8.295754
 20
12.262523
 30
0.0
 10
8.360154
 20
12.351355
 30
0.0
 10
8.555579
 20
12.422419
 30
0.0
 10
8.555579
 20
12.422419
 30
0.0
  0
LWPOLYLINE
  5
102
100
AcDbEntity
  8
Layer_1
 62
7
100
AcDbPolyline
 90
11
 70
0
 10
6.267990
 20
12.408872
 30
0.0
 10
6.463415
 20
12.337809
 30
0.0
 10
6.527815
 20
12.248976
 30
0.0
 10
6.552256
 20
12.124615
 30
0.0
 10
6.552256
 20
11.366603
 30
0.0
 10
5.983747
 20
11.366603
 30
0.0
 10
5.983747
 20
12.124615
 30
0.0
 10
6.008188
 20
12.248976
 30
0.0
 10
6.072588
 20
12.337809
 30
0.0
 10
6.268013
 20
12.408872
 30
0.0
 10
6.268013
 20
12.408872
 30
0.0
  0
LWPOLYLINE
  5
103
100
AcDbEntity
  8
Layer_1
 62
7
100
AcDbPolyline
 90
11
 70
0
 10
7.405032
 20
12.395326
 30
0.0
 10
7.600460
 20
12.324262
 30
0.0
 10
7.664860
 20
12.235430
 30
0.0
 10
7.689301
 20
12.111069
 30
0.0
 10
7.689301
 20
11.353056
 30
0.0
 10
7.120790
 20
11.353056
 30
0.0
 10
7.120790
 20
12.111069
 30
0.0
 10
7.145230
 20
12.235430
 30
0.0
 10
7.209630
 20
12.324262
 30
0.0
 10
7.405055
 20
12.395326
 30
0.0
 10
7.405055
 20
12.395326
 30
0.0
  0
LWPOLYLINE
  5
104
100
AcDbEntity
  8
Layer_1
 62
7
100
AcDbPolyline
 90
11
 70
0
 10
12.589384
 20
9.376815
 30
0.0
 10
12.784812
 20
9.305751
 30
0.0
 10
12.849212
 20
9.216919
 30
0.0
 10
12.873652
 20
9.092558
 30
0.0
 10
12.873652
 20
8.334543
 30
0.0
 10
12.305141
 20
8.334543
 30
0.0
 10
12.305141
 20
9.092558
 30
0.0
 10
12.329582
 20
9.216919
 30
0.0
 10
12.393982
 20
9.305751
 30
0.0
 10
12.589407
 20
9.376815
 30
0.0
 10
12.589407
 20
9.376815
 30
0.0
  0
LWPOLYLINE
  5
105
100
AcDbEntity
  8
Layer_1
 62
7
100
AcDbPolyline
 90
11
 70
0
 10
2.342669
 20
9.363268
 30
0.0
 10
2.538093
 20
9.292205
 30
0.0
 10
2.602494
 20
9.203375
 30
0.0
 10
2.626934
 20
9.079014
 30
0.0
 10
2.626934
 20
8.320999
 30
0.0
 10
2.058426
 20
8.320999
 30
0.0
 10
2.058426
 20
9.079014
 30
0.0
 10
2.082866
 20
9.203375
 30
0.0
 10
2.147266
 20
9.292205
 30
0.0
 10
2.342691
 20
9.363268
 30
0.0
 10
2.342691
 20
9.363268
 30
0.0
  0
LWPOLYLINE
  5
106
100
AcDbEntity
  8
Layer_1
 62
7
100
AcDbPolyline
 90
11
 70
0
 10
3.479714
 20
9.363268
 30
0.0
 10
3.675138
 20
9.292205
 30
0.0
 10
3.739539
 20
9.203375
 30
0.0
 10
3.763979
 20
9.079014
 30
0.0
 10
3.763979
 20
8.320999
 30
0.0
 10
3.195468
 20
8.320999
 30
0.0
 10
3.195468
 20
9.079014
 30
0.0
 10
3.219908
 20
9.203375
 30
0.0
 10
3.284309
 20
9.292205
 30
0.0
 10
3.479736
 20
9.363268
 30
0.0
 10
3.479736
 20
9.363268
 30
0.0
  0
LWPOLYLINE
  5
107
100
AcDbEntity
  8
Layer_1
 62
7
100
AcDbPolyline
 90
11
 70
0
 10
6.295196
 20
9.363268
 30
0.0
 10
6.490621
 20
9.292205
 30
0.0
 10
6.555021
 20
9.203375
 30
0.0
 10
6.579462
 20
9.079014
 30
0.0
 10
6.579462
 20
8.320999
 30
0.0
 10
6.010951
 20
8.320999
 30
0.0
 10
6.010951
 20
9.079014
 30
0.0
 10
6.035391
 20
9.203375
 30
0.0
 10
6.099791
 20
9.292205
 30
0.0
 10
6.295219
 20
9.363268
 30
0.0
 10
6.295219
 20
9.363268
 30
0.0
  0
LWPOLYLINE
  5
108
100
AcDbEntity
  8
Layer_1
 62
7
100
AcDbPolyline
 90
11
 70
0
 10
8.582808
 20
9.363268
 30
0.0
 10
8.778233
 20
9.292205
 30
0.0
 10
8.842633
 20
9.203375
 30
0.0
 10
8.867073
 20
9.079014
 30
0.0
 10
8.867073
 20
8.320999
 30
0.0
 10
8.298562
 20
8.320999
 30
0.0
 10
8.298562
 20
9.079014
 30
0.0
 10
8.323003
 20
9.203375
 30
0.0
 10
8.387403
 20
9.292205
 30
0.0
 10
8.582830
 20
9.363268
 30
0.0
 10
8.582830
 20
9.363268
 30
0.0
  0
LWPOLYLINE
  5
109
100
AcDbEntity
  8
Layer_1
 62
7
100
AcDbPolyline
 90
11
 70
0
 10
7.445514
 20
9.359571
 30
0.0
 10
7.640939
 20
9.288508
 30
0.0
 10
7.705340
 20
9.199675
 30
0.0
 10
7.729780
 20
9.075314
 30
0.0
 10
7.729780
 20
8.317299
 30
0.0
 10
7.161269
 20
8.317299
 30
0.0
 10
7.161269
 20
9.075314
 30
0.0
 10
7.185709
 20
9.199675
 30
0.0
 10
7.250109
 20
9.288508
 30
0.0
 10
7.445537
 20
9.359571
 30
0.0
 10
7.445537
 20
9.359571
 30
0.0
  0
LWPOLYLINE
  5
10a
100
AcDbEntity
  8
Layer_1
 62
7
100
AcDbPolyline
 90
11
 70
0
 10
11.452500
 20
9.349722
 30
0.0
 10
11.647925
 20
9.278658
 30
0.0
 10
11.712325
 20
9.189829
 30
0.0
 10
11.736765
 20
9.065467
 30
0.0
 10
11.736765
 20
8.307452
 30
0.0
 10
11.168257
 20
8.307452
 30
0.0
 10
11.168257
 20
9.065467
 30
0.0
 10
11.192697
 20
9.189829
 30
0.0
 10
11.257098
 20
9.278658
 30
0.0
 10
11.452522
 20
9.349722
 30
0.0
 10
11.452522
 20
9.349722
 30
0.0
  0
LWPOLYLINE
  5
10b
100
AcDbEntity
  8
Layer_1
 62
7
100
AcDbPolyline
 90
17
 70
0
 10
7.537646
 20
7.029858
 30
0.0
 10
7.950241
 20
6.959632
 30
0.0
 10
8.310176
 20
6.748956
 30
0.0
 10
8.453934
 20
6.590949
 30
0.0
 10
8.564771
 20
6.397827
 30
0.0
 10
8.636103
 20
6.169591
 30
0.0
 10
8.661333
 20
5.906238
 30
0.0
 10
8.661333
 20
2.909862
 30
0.0
 10
6.414015
 20
2.909862
 30
0.0
 10
6.414015
 20
5.906238
 30
0.0
 10
6.439245
 20
6.169591
 30
0.0
 10
6.510569
 20
6.397827
 30
0.0
 10
6.621395
 20
6.590949
 30
0.0
 10
6.765139
 20
6.748956
 30
0.0
 10
7.125048
 20
6.959632
 30
0.0
 10
7.537632
 20
7.029858
 30
0.0
 10
7.537632
 20
7.029858
 30
0.0
  0
LWPOLYLINE
  5
10c
100
AcDbEntity
  8
Layer_1
 62
7
100
AcDbPolyline
 90
11
 70
0
 10
2.342790
 20
6.520715
 30
0.0
 10
2.538215
 20
6.449651
 30
0.0
 10
2.602615
 20
6.360822
 30
0.0
 10
2.627055
 20
6.236458
 30
0.0
 10
2.627055
 20
5.478443
 30
0.0
 10
2.058547
 20
5.478443
 30
0.0
 10
2.058547
 20
6.236458
 30
0.0
 10
2.082987
 20
6.360822
 30
0.0
 10
2.147388
 20
6.449651
 30
0.0
 10
2.342812
 20
6.520715
 30
0.0
 10
2.342812
 20
6.520715
 30
0.0
  0
LWPOLYLINE
  5
10d
100
AcDbEntity
  8
Layer_1
 62
7
100
AcDbPolyline
 90
11
 70
0
 10
3.479835
 20
6.520715
 30
0.0
 10
3.675260
 20
6.449651
 30
0.0
 10
3.739660
 20
6.360822
 30
0.0
 10
3.764101
 20
6.236458
 30
0.0
 10
3.764101
 20
5.478443
 30
0.0
 10
3.195589
 20
5.478443
 30
0.0
 10
3.195589
 20
6.236458
 30
0.0
 10
3.220030
 20
6.360822
 30
0.0
 10
3.284430
 20
6.449651
 30
0.0
 10
3.479858
 20
6.520715
 30
0.0
 10
3.479858
 20
6.520715
 30
0.0
  0
LWPOLYLINE
  5
10e
100
AcDbEntity
  8
Layer_1
 62
7
100
AcDbPolyline
 90
11
 70
0
 10
11.452554
 20
6.520715
 30
0.0
 10
11.647978
 20
6.449651
 30
0.0
 10
11.712379
 20
6.360822
 30
0.0
 10
11.736819
 20
6.236458
 30
0.0
 10
11.736819
 20
5.478443
 30
0.0
 10
11.168311
 20
5.478443
 30
0.0
 10
11.168311
 20
6.236458
 30
0.0
 10
11.192751
 20
6.360822
 30
0.0
 10
11.257151
 20
6.449651
 30
0.0
 10
11.452576
 20
6.520715
 30
0.0
 10
11.452576
 20
6.520715
 30
0.0
  0
LWPOLYLINE
  5
10f
100
AcDbEntity
  8
Layer_1
 62
7
100
AcDbPolyline
 90
11
 70
0
 10
12.589596
 20
6.520715
 30
0.0
 10
12.785023
 20
6.449651
 30
0.0
 10
12.849424
 20
6.360822
 30
0.0
 10
12.873864
 20
6.236458
 30
0.0
 10
12.873864
 20
5.478443
 30
0.0
 10
12.305353
 20
5.478443
 30
0.0
 10
12.305353
 20
6.236458
 30
0.0
 10
12.329793
 20
6.360822
 30
0.0
 10
12.394194
 20
6.449651
 30
0.0
 10
12.589618
 20
6.520715
 30
0.0
 10
12.589618
 20
6.520715
 30
0.0
  0
ENDSEC
  0
SECTION
  2
OBJECTS
  0
DICTIONARY
  5
C
330
0
100
AcDbDictionary
  3
ACAD_GROUP
350
D
  3
ACAD_MLINESTYLE
350
17
  0
DICTIONARY
  5
D
330
C
100
AcDbDictionary
  0
DICTIONARY
  5
1A
330
C
100
AcDbDictionary
  0
DICTIONARY
  5
17
330
C
100
AcDbDictionary
  3
STANDARD
350
18
  0
DICTIONARY
  5
19
330
C
100
AcDbDictionary
  0
ENDSEC
  0
EOF
